<svg xmlns="http://www.w3.org/2000/svg" xmlns:xlink="http://www.w3.org/1999/xlink" width="500" zoomAndPan="magnify" viewBox="0 0 375 374.999991" height="500" preserveAspectRatio="xMidYMid meet" version="1.0"><defs><clipPath id="a990d16161"><path d="M 64 163 L 229 163 L 229 305 L 64 305 Z M 64 163 " clip-rule="nonzero"/></clipPath><clipPath id="0127421e43"><path d="M 40.191406 200.578125 L 224.59375 157.460938 L 248.925781 261.53125 L 64.523438 304.644531 Z M 40.191406 200.578125 " clip-rule="nonzero"/></clipPath><clipPath id="80df6f5856"><path d="M 40.191406 200.578125 L 224.59375 157.460938 L 248.925781 261.53125 L 64.523438 304.644531 Z M 40.191406 200.578125 " clip-rule="nonzero"/></clipPath><clipPath id="dc0d1f3959"><path d="M 208.449219 0.167969 L 375 0.167969 L 375 166.523438 L 208.449219 166.523438 Z M 208.449219 0.167969 " clip-rule="nonzero"/></clipPath></defs><path fill="#ffffff" d="M 187.5 375 C 84.089844 375 0 290.910156 0 187.5 C 0 84.089844 84.089844 0 187.5 0 L 187.5 13.59375 C 91.664062 13.59375 13.59375 91.664062 13.59375 187.5 C 13.59375 283.335938 91.664062 361.40625 187.5 361.40625 C 283.335938 361.40625 361.40625 283.335938 361.40625 187.5 L 375 187.5 C 375 290.910156 290.910156 375 187.5 375 Z M 187.5 375 " fill-opacity="1" fill-rule="nonzero"/><g clip-path="url(#a990d16161)"><g clip-path="url(#0127421e43)"><g clip-path="url(#80df6f5856)"><path fill="#ffffff" d="M 225.027344 172.441406 C 219.421875 164.324219 208.664062 161.210938 196.242188 164.117188 C 189.28125 165.742188 182.265625 169.191406 175.960938 174.101562 C 167.226562 180.894531 160.730469 189.757812 157.660156 199.0625 C 155.566406 205.417969 155.226562 211.46875 156.644531 216.675781 C 156.628906 216.679688 156.609375 216.683594 156.609375 216.683594 C 156.59375 216.6875 156.578125 216.691406 156.558594 216.695312 C 156.476562 216.730469 156.40625 216.75 156.324219 216.785156 C 153.777344 217.765625 150.894531 218.878906 147.757812 220.066406 C 146.964844 220.363281 146.164062 220.679688 145.34375 220.996094 C 144.503906 221.320312 143.648438 221.648438 142.734375 222.027344 C 141.835938 222.402344 140.871094 222.8125 139.871094 223.300781 C 138.871094 223.789062 137.800781 224.371094 136.691406 225.101562 C 135.601562 225.832031 134.480469 226.734375 133.472656 227.8125 C 132.460938 228.886719 131.59375 230.09375 130.894531 231.320312 C 130.175781 232.546875 129.628906 233.808594 129.164062 235.03125 C 128.703125 236.253906 128.332031 237.472656 127.992188 238.683594 C 127.671875 239.890625 127.382812 241.074219 127.128906 242.265625 C 127.015625 242.859375 126.878906 243.457031 126.78125 244.046875 C 126.71875 244.335938 126.664062 244.640625 126.625 244.941406 C 126.578125 245.207031 126.515625 245.496094 126.46875 245.761719 C 126.082031 247.863281 125.617188 249.929688 124.984375 251.847656 C 124.679688 252.796875 124.328125 253.71875 123.925781 254.578125 C 123.734375 255.007812 123.515625 255.40625 123.300781 255.804688 C 123.082031 256.203125 122.839844 256.570312 122.589844 256.917969 C 122.101562 257.636719 121.535156 258.261719 120.878906 258.890625 C 120.222656 259.519531 119.414062 260.128906 118.492188 260.800781 C 117.578125 261.492188 116.519531 262.285156 115.515625 263.234375 C 114.496094 264.183594 113.574219 265.3125 112.796875 266.519531 C 112.703125 266.667969 112.609375 266.816406 112.515625 266.96875 C 112.238281 267.414062 112 267.875 111.757812 268.332031 C 111.445312 268.953125 111.167969 269.566406 110.914062 270.191406 C 110.421875 271.441406 110.015625 272.683594 109.703125 273.925781 C 109.722656 273.851562 109.707031 273.945312 109.703125 273.925781 L 109.699219 273.984375 L 109.667969 274.082031 L 109.609375 274.296875 L 109.488281 274.726562 C 109.417969 274.964844 109.34375 275.199219 109.273438 275.4375 C 109.183594 275.675781 109.113281 275.929688 109.023438 276.167969 C 108.933594 276.410156 108.84375 276.648438 108.753906 276.890625 C 108.394531 277.851562 107.96875 278.773438 107.484375 279.671875 C 106.535156 281.464844 105.382812 283.105469 104.0625 284.566406 C 102.742188 286.023438 101.269531 287.320312 99.707031 288.449219 C 98.144531 289.582031 96.503906 290.535156 94.855469 291.375 C 93.1875 292.203125 91.507812 292.910156 89.839844 293.515625 C 88.171875 294.125 86.527344 294.65625 84.90625 295.164062 C 84.5 295.296875 84.109375 295.421875 83.707031 295.574219 C 83.503906 295.636719 83.304688 295.722656 83.101562 295.804688 C 83.003906 295.847656 82.902344 295.886719 82.785156 295.933594 C 82.6875 295.976562 82.585938 296.015625 82.503906 296.054688 C 82.140625 296.214844 81.777344 296.390625 81.417969 296.566406 C 81.054688 296.742188 80.691406 296.898438 80.351562 297.085938 C 78.957031 297.761719 77.671875 298.445312 76.445312 299.058594 C 74.003906 300.328125 71.890625 301.460938 70.167969 302.375 C 68.433594 303.308594 67.070312 304.046875 66.144531 304.539062 C 65.175781 305.074219 64.6875 305.335938 64.6875 305.335938 C 64.6875 305.335938 65.203125 305.125 66.1875 304.730469 C 67.15625 304.339844 68.59375 303.765625 70.417969 303.046875 C 72.242188 302.328125 74.46875 301.460938 77 300.484375 C 78.273438 300.003906 79.632812 299.484375 81.070312 298.984375 C 81.421875 298.847656 81.78125 298.746094 82.148438 298.605469 C 82.503906 298.484375 82.894531 298.355469 83.269531 298.234375 C 83.355469 298.210938 83.457031 298.171875 83.542969 298.152344 C 83.628906 298.128906 83.710938 298.09375 83.796875 298.074219 C 83.972656 298.03125 84.160156 297.988281 84.351562 297.941406 C 84.734375 297.855469 85.136719 297.777344 85.535156 297.683594 C 87.175781 297.355469 88.902344 297.007812 90.699219 296.570312 C 92.496094 296.128906 94.34375 295.589844 96.226562 294.890625 C 98.09375 294.199219 99.996094 293.351562 101.867188 292.292969 C 103.738281 291.234375 105.574219 289.949219 107.300781 288.410156 C 109.023438 286.875 110.625 285.058594 112.007812 283 C 112.703125 281.976562 113.324219 280.882812 113.902344 279.761719 C 114.035156 279.472656 114.167969 279.1875 114.320312 278.894531 C 114.453125 278.609375 114.582031 278.304688 114.71875 278.015625 C 114.847656 277.714844 114.972656 277.390625 115.101562 277.085938 L 115.265625 276.683594 L 115.34375 276.480469 L 115.375 276.382812 L 115.398438 276.324219 C 115.40625 276.285156 115.402344 276.339844 115.429688 276.226562 C 115.804688 275.242188 116.21875 274.285156 116.671875 273.414062 C 116.898438 272.976562 117.148438 272.554688 117.40625 272.164062 C 117.660156 271.773438 117.921875 271.402344 118.207031 271.0625 C 118.773438 270.363281 119.371094 269.785156 120.085938 269.253906 C 120.785156 268.726562 121.597656 268.222656 122.566406 267.667969 C 123.515625 267.117188 124.601562 266.460938 125.695312 265.65625 C 126.785156 264.855469 127.855469 263.890625 128.808594 262.808594 C 129.765625 261.746094 130.570312 260.570312 131.285156 259.398438 C 131.992188 258.210938 132.589844 257.011719 133.128906 255.808594 C 134.191406 253.402344 135 251.003906 135.691406 248.632812 C 135.722656 248.53125 135.75 248.417969 135.78125 248.316406 C 135.832031 248.140625 135.882812 247.964844 135.929688 247.789062 C 136.015625 247.53125 136.082031 247.261719 136.167969 247.003906 C 136.324219 246.492188 136.476562 245.980469 136.632812 245.46875 C 136.945312 244.464844 137.289062 243.507812 137.636719 242.585938 C 138.34375 240.757812 139.121094 239.167969 139.949219 238.097656 C 140.351562 237.546875 140.769531 237.140625 141.195312 236.785156 C 141.628906 236.445312 142.089844 236.15625 142.648438 235.878906 C 143.761719 235.328125 145.238281 234.851562 146.851562 234.402344 C 147.65625 234.175781 148.484375 233.964844 149.308594 233.738281 C 150.152344 233.519531 150.976562 233.292969 151.785156 233.085938 C 153.320312 232.6875 154.796875 232.289062 156.210938 231.921875 C 157.777344 231.519531 159.273438 231.113281 160.652344 230.753906 C 162.648438 230.234375 164.453125 229.757812 166.039062 229.347656 C 166.058594 229.34375 166.074219 229.339844 166.109375 229.332031 C 166.128906 229.328125 166.144531 229.324219 166.179688 229.316406 C 172.03125 232.773438 179.851562 233.648438 188.480469 231.628906 C 195.445312 230 202.457031 226.554688 208.761719 221.644531 C 217.496094 214.851562 223.992188 205.988281 227.0625 196.683594 C 230.117188 187.402344 229.402344 178.796875 225.027344 172.441406 Z M 225.027344 172.441406 " fill-opacity="1" fill-rule="nonzero"/></g></g></g><g clip-path="url(#dc0d1f3959)"><path fill="#ffffff" d="M 374.800781 83.347656 C 374.800781 129.28125 337.5625 166.523438 291.625 166.523438 C 245.6875 166.523438 208.449219 129.28125 208.449219 83.347656 C 208.449219 37.410156 245.6875 0.167969 291.625 0.167969 C 337.5625 0.167969 374.800781 37.410156 374.800781 83.347656 Z M 374.800781 83.347656 " fill-opacity="1" fill-rule="nonzero"/></g></svg>